{
    "asset" : {
        "generator" : "Khronos glTF Blender I/O v1.3.48",
        "version" : "2.0"
    },
    "scene" : 0,
    "scenes" : [
        {
            "name" : "Scene",
            "nodes" : [
                2,
                3
            ]
        }
    ],
    "nodes" : [
        {
            "mesh" : 0,
            "name" : "node_Hay_Base_01_Spider",
            "translation" : [
                0,
                0.6060391068458557,
                -0.6622806191444397
            ]
        },
        {
            "children" : [
                0
            ],
            "mesh" : 1,
            "name" : "node_Hay_Base_01_Art"
        },
        {
            "children" : [
                1
            ],
            "name" : "UnityGlTF_root"
        },
        {
            "name" : "Light",
            "rotation" : [
                0.16907575726509094,
                0.7558803558349609,
                -0.27217137813568115,
                0.570947527885437
            ],
            "translation" : [
                4.076245307922363,
                5.903861999511719,
                -1.0054539442062378
            ]
        }
    ],
    "materials" : [
        {
            "alphaMode" : "BLEND",
            "emissiveFactor" : [
                0,
                0,
                0
            ],
            "name" : "SpiderWeb_01_Mat",
            "pbrMetallicRoughness" : {
                "baseColorTexture" : {
                    "index" : 0,
                    "texCoord" : 0
                },
                "metallicFactor" : 0,
                "roughnessFactor" : 0.5
            }
        },
        {
            "emissiveFactor" : [
                0,
                0,
                0
            ],
            "name" : "Hay_01_Opaque_Mat",
            "pbrMetallicRoughness" : {
                "baseColorTexture" : {
                    "index" : 1,
                    "texCoord" : 0
                },
                "metallicFactor" : 0,
                "roughnessFactor" : 1
            }
        },
        {
            "alphaCutoff" : 0.5,
            "alphaMode" : "MASK",
            "emissiveFactor" : [
                0,
                0,
                0
            ],
            "name" : "Hay_01_Mat",
            "pbrMetallicRoughness" : {
                "baseColorTexture" : {
                    "index" : 2,
                    "texCoord" : 0
                },
                "metallicFactor" : 0,
                "roughnessFactor" : 0.5
            }
        }
    ],
    "meshes" : [
        {
            "name" : "mesh_Hay_Base_01_Spider_31516Hay_Base_01_Spider",
            "primitives" : [
                {
                    "attributes" : {
                        "POSITION" : 0,
                        "NORMAL" : 1,
                        "TEXCOORD_0" : 2
                    },
                    "indices" : 3,
                    "material" : 0
                }
            ]
        },
        {
            "name" : "mesh_Hay_Base_01_31506Hay_Base_01_Art",
            "primitives" : [
                {
                    "attributes" : {
                        "POSITION" : 4,
                        "NORMAL" : 5,
                        "TEXCOORD_0" : 6
                    },
                    "indices" : 7,
                    "material" : 1
                },
                {
                    "attributes" : {
                        "POSITION" : 8,
                        "NORMAL" : 9,
                        "TEXCOORD_0" : 10
                    },
                    "indices" : 11,
                    "material" : 2
                }
            ]
        }
    ],
    "textures" : [
        {
            "source" : 0
        },
        {
            "source" : 1
        },
        {
            "source" : 1
        }
    ],
    "images" : [
        {
            "bufferView" : 4,
            "mimeType" : "image/png",
            "name" : "SpiderWeb_Albedo"
        },
        {
            "bufferView" : 9,
            "mimeType" : "image/png",
            "name" : "Hay_Albedo"
        }
    ],
    "accessors" : [
        {
            "bufferView" : 0,
            "componentType" : 5126,
            "count" : 21,
            "max" : [
                1.612900972366333,
                0.6060391068458557,
                2.5896990299224854
            ],
            "min" : [
                -1.612900972366333,
                -0.6060391068458557,
                -2.5896990299224854
            ],
            "type" : "VEC3"
        },
        {
            "bufferView" : 1,
            "componentType" : 5126,
            "count" : 21,
            "type" : "VEC3"
        },
        {
            "bufferView" : 2,
            "componentType" : 5126,
            "count" : 21,
            "type" : "VEC2"
        },
        {
            "bufferView" : 3,
            "componentType" : 5123,
            "count" : 54,
            "type" : "SCALAR"
        },
        {
            "bufferView" : 5,
            "componentType" : 5126,
            "count" : 24,
            "max" : [
                0.9019657969474792,
                1.1917636394500732,
                1.8635613918304443
            ],
            "min" : [
                -0.9019660949707031,
                0.0060887993313372135,
                -1.8635613918304443
            ],
            "type" : "VEC3"
        },
        {
            "bufferView" : 6,
            "componentType" : 5126,
            "count" : 24,
            "type" : "VEC3"
        },
        {
            "bufferView" : 7,
            "componentType" : 5126,
            "count" : 24,
            "type" : "VEC2"
        },
        {
            "bufferView" : 8,
            "componentType" : 5123,
            "count" : 36,
            "type" : "SCALAR"
        },
        {
            "bufferView" : 10,
            "componentType" : 5126,
            "count" : 28,
            "max" : [
                0.9328725934028625,
                1.2120778560638428,
                1.9274183511734009
            ],
            "min" : [
                -0.9328731894493103,
                -0.014225463382899761,
                -1.9274179935455322
            ],
            "type" : "VEC3"
        },
        {
            "bufferView" : 11,
            "componentType" : 5126,
            "count" : 28,
            "type" : "VEC3"
        },
        {
            "bufferView" : 12,
            "componentType" : 5126,
            "count" : 28,
            "type" : "VEC2"
        },
        {
            "bufferView" : 13,
            "componentType" : 5123,
            "count" : 36,
            "type" : "SCALAR"
        }
    ],
    "bufferViews" : [
        {
            "buffer" : 0,
            "byteLength" : 252,
            "byteOffset" : 0
        },
        {
            "buffer" : 0,
            "byteLength" : 252,
            "byteOffset" : 252
        },
        {
            "buffer" : 0,
            "byteLength" : 168,
            "byteOffset" : 504
        },
        {
            "buffer" : 0,
            "byteLength" : 108,
            "byteOffset" : 672
        },
        {
            "buffer" : 0,
            "byteLength" : 97913,
            "byteOffset" : 780
        },
        {
            "buffer" : 0,
            "byteLength" : 288,
            "byteOffset" : 98696
        },
        {
            "buffer" : 0,
            "byteLength" : 288,
            "byteOffset" : 98984
        },
        {
            "buffer" : 0,
            "byteLength" : 192,
            "byteOffset" : 99272
        },
        {
            "buffer" : 0,
            "byteLength" : 72,
            "byteOffset" : 99464
        },
        {
            "buffer" : 0,
            "byteLength" : 217105,
            "byteOffset" : 99536
        },
        {
            "buffer" : 0,
            "byteLength" : 336,
            "byteOffset" : 316644
        },
        {
            "buffer" : 0,
            "byteLength" : 336,
            "byteOffset" : 316980
        },
        {
            "buffer" : 0,
            "byteLength" : 224,
            "byteOffset" : 317316
        },
        {
            "buffer" : 0,
            "byteLength" : 72,
            "byteOffset" : 317540
        }
    ],
    "buffers" : [
        {
            "byteLength" : 317612,
            "uri" : "data:application/octet-stream;base64,"
        }
    ]
}
